<?xml version="1.0" standalone="no"?>
<!DOCTYPE svg PUBLIC "-//W3C//DTD SVG 20010904//EN"
 "http://www.w3.org/TR/2001/REC-SVG-20010904/DTD/svg10.dtd">
<svg version="1.0" xmlns="http://www.w3.org/2000/svg"
 width="233.000000pt" height="233.000000pt" viewBox="0 0 233.000000 233.000000"
 preserveAspectRatio="xMidYMid meet">

<g transform="translate(0.000000,233.000000) scale(0.100000,-0.100000)"
fill="#000000" stroke="none">
<path d="M960 2314 c-233 -42 -448 -156 -618 -326 -458 -457 -458 -1189 0
-1646 457 -457 1189 -457 1646 0 457 457 457 1189 0 1646 -173 173 -387 285
-626 327 -106 18 -299 18 -402 -1z m410 -1146 l0 -373 -103 103 -102 102 -103
-102 -102 -103 0 373 0 372 205 0 205 0 0 -372z"/>
</g>
</svg>
